<?xml version="1.0" encoding="utf-8"?>
<!-- Generator: Adobe Illustrator 15.0.2, SVG Export Plug-In . SVG Version: 6.00 Build 0)  -->
<!DOCTYPE svg PUBLIC "-//W3C//DTD SVG 1.1//EN" "http://www.w3.org/Graphics/SVG/1.1/DTD/svg11.dtd">
<svg version="1.1" id="welcome" xmlns="http://www.w3.org/2000/svg" xmlns:xlink="http://www.w3.org/1999/xlink" x="0px" y="0px"
	 width="1224px" height="340px" viewBox="0 0 1224 340" enable-background="new 0 0 1224 340" xml:space="preserve">
<polygon fill="#00A0E6" points="874.855,43.659 848.074,53.914 841.338,81.79 823.31,59.489 794.717,61.698 810.355,37.659 
	799.418,11.148 827.113,18.593 848.947,0 850.424,28.639 "/>
<polygon fill="#00A0E6" points="858.003,120.777 852.714,102.652 834.786,96.735 850.389,86.104 850.477,67.223 865.409,78.777 
	883.393,73.026 877.018,90.798 888.044,106.125 869.173,105.554 "/>
<polygon fill="#00A0E6" points="981.557,170 977.459,215.714 1012.794,245.006 968.051,255.234 951.111,297.893 927.557,258.5 
	881.752,255.57 911.938,220.997 900.57,176.529 942.779,194.555 "/>
<polygon fill="#00A0E6" points="297.345,344.178 265.273,343.715 246.709,369.872 237.24,339.227 206.626,329.655 232.845,311.178 
	232.489,279.105 258.163,298.331 288.556,288.081 278.204,318.44 "/>
<polygon fill="#00A0E6" points="944.313,24 941.868,12.618 931.105,8.18 941.176,2.336 942.069,-9.271 950.738,-1.5 962.055,-4.236 
	957.342,6.41 963.441,16.327 951.86,15.135 "/>
</svg>
