<?xml version="1.0" encoding="utf-8"?>
<!-- Generator: Adobe Illustrator 15.0.2, SVG Export Plug-In . SVG Version: 6.00 Build 0)  -->
<!DOCTYPE svg PUBLIC "-//W3C//DTD SVG 1.1//EN" "http://www.w3.org/Graphics/SVG/1.1/DTD/svg11.dtd">
<svg version="1.1" id="welcome" xmlns="http://www.w3.org/2000/svg" xmlns:xlink="http://www.w3.org/1999/xlink" x="0px" y="0px"
	 width="614px" height="340px" viewBox="0 0 614 340" enable-background="new 0 0 614 340" xml:space="preserve">
<polygon fill="#00A0E6" points="497.617,43.659 470.836,53.914 464.1,81.79 446.071,59.489 417.479,61.698 433.117,37.659 
	422.18,11.148 449.875,18.593 471.709,0 473.186,28.639 "/>
<polygon fill="#00A0E6" points="480.765,120.777 475.476,102.652 457.548,96.735 473.15,86.104 473.238,67.223 488.171,78.777 
	506.154,73.026 499.779,90.798 510.806,106.125 491.935,105.554 "/>
<polygon fill="#00A0E6" points="604.318,170 600.221,215.714 635.556,245.006 590.812,255.234 573.873,297.893 550.318,258.5 
	504.514,255.57 534.7,220.997 523.332,176.529 565.541,194.555 "/>
<polygon fill="#00A0E6" points="79,126 46.928,125.537 28.364,151.694 18.895,121.048 -11.719,111.477 14.5,93 14.144,60.927 
	39.818,80.153 70.211,69.903 59.859,100.262 "/>
<polygon fill="#00A0E6" points="567.075,24 564.63,12.618 553.867,8.18 563.938,2.336 564.831,-9.271 573.5,-1.5 584.816,-4.236 
	580.104,6.41 586.203,16.327 574.622,15.135 "/>
<g>
	<path fill="#00A0E6" d="M8.056,323.932c0.216-1.439,0.288-2.699,0.288-4.644v-19.473c0-1.729-0.072-3.024-0.288-4.644
		c1.548,0.071,2.664,0.107,4.571,0.107h7.523c3.491,0,5.939,0.828,7.667,2.556c1.476,1.44,2.231,3.6,2.231,6.191
		c0,2.735-0.828,4.968-2.412,6.623c-1.764,1.764-4.211,2.592-7.667,2.592h-6.875v6.012c0,1.943,0.072,3.312,0.288,4.679H8.056z
		 M19.97,309.102c3.312,0,5.111-1.764,5.111-4.931c0-1.44-0.396-2.628-1.188-3.456c-0.828-0.899-2.016-1.296-3.923-1.296h-6.875
		v9.683H19.97z"/>
	<path fill="#00A0E6" d="M38.619,295.279v4.571h-5.291v-4.571H38.619z M38.583,303.271c-0.18,1.332-0.252,2.52-0.252,4.716v11.23
		c0,1.979,0.072,3.203,0.252,4.715h-5.255c0.216-1.619,0.288-2.879,0.288-4.679V307.95c0-1.98-0.072-3.204-0.288-4.68H38.583z"/>
	<path fill="#00A0E6" d="M57.445,310.182c-0.396-1.116-0.648-1.62-1.116-2.195c-0.864-1.08-2.124-1.656-3.708-1.656
		c-3.527,0-5.723,2.771-5.723,7.235c0,4.499,2.231,7.271,5.867,7.271c1.8,0,3.24-0.72,4.14-2.016c0.324-0.504,0.504-0.899,0.72-1.8
		l4.463,0.9c-0.504,1.439-0.864,2.195-1.512,3.06c-1.728,2.376-4.5,3.636-7.919,3.636c-6.335,0-10.439-4.284-10.439-10.943
		c0-3.383,1.08-6.299,3.06-8.314c1.764-1.8,4.284-2.735,7.235-2.735c3.527,0,6.335,1.367,8.063,3.887
		c0.468,0.721,0.756,1.296,1.26,2.628L57.445,310.182z"/>
	<path fill="#00A0E6" d="M70.73,295.279c-0.18,1.368-0.252,2.628-0.252,4.716v11.843l5.399-5.363
		c1.656-1.584,2.268-2.304,2.844-3.204h6.731c-2.052,1.836-2.052,1.836-3.6,3.312l-5.111,4.859l6.083,8.315
		c2.448,3.348,2.448,3.348,3.275,4.175h-6.407c-0.432-1.151-0.864-1.871-2.375-4.067l-3.888-5.688l-2.952,2.808v2.34
		c0,2.34,0.036,3.204,0.252,4.607h-5.075c0.18-1.476,0.252-2.699,0.252-4.679v-19.258c0-2.16-0.072-3.348-0.252-4.716H70.73z"/>
	<path fill="#00A0E6" d="M94.275,295.279c-0.18,1.404-0.252,2.556-0.252,4.716v19.258c0,1.907,0.072,3.095,0.252,4.679h-5.219
		c0.18-1.548,0.252-2.592,0.252-4.679v-19.294c0-2.16-0.072-3.312-0.252-4.68H94.275z"/>
	<path fill="#00A0E6" d="M102.519,314.789c0.18,1.979,0.504,2.987,1.332,4.031c1.044,1.296,2.664,2.016,4.5,2.016
		c1.764,0,3.275-0.647,4.319-1.8c0.432-0.504,0.684-0.899,1.044-1.871l4.248,1.367c-0.828,1.729-1.296,2.412-2.196,3.312
		c-1.872,1.836-4.392,2.772-7.415,2.772c-6.371,0-10.403-4.248-10.403-10.979c0-6.659,3.996-11.015,10.151-11.015
		c4.211,0,7.523,2.087,8.963,5.687c0.684,1.729,0.936,3.024,1.044,5.472c0,0.072,0,0.18,0.072,1.008H102.519z M113.498,311.226
		c-0.252-1.584-0.684-2.556-1.584-3.456c-0.972-0.972-2.196-1.439-3.887-1.439c-2.808,0-4.859,1.872-5.399,4.896H113.498z"/>
	<path fill="#00A0E6" d="M125.774,317.453c0.612,2.447,1.944,3.419,4.751,3.419c2.664,0,4.319-1.044,4.319-2.735
		c0-0.72-0.36-1.404-0.936-1.8c-0.684-0.468-0.899-0.504-3.779-1.152c-2.844-0.611-3.959-0.972-5.183-1.547
		c-2.052-0.973-3.168-2.7-3.168-4.788c0-1.26,0.396-2.447,1.116-3.348c1.476-1.871,3.923-2.808,7.199-2.808
		c2.952,0,5.292,0.72,6.767,2.088c0.936,0.9,1.44,1.8,1.944,3.563l-4.751,0.612c-0.396-1.979-1.62-2.844-3.959-2.844
		c-2.231,0-3.743,1.008-3.743,2.52c0,0.684,0.396,1.296,1.116,1.691c0.792,0.396,1.548,0.612,3.6,1.08
		c3.671,0.792,5.147,1.296,6.335,2.196c1.404,1.008,2.088,2.483,2.088,4.463c0,1.476-0.684,3.06-1.764,4.067
		c-1.656,1.548-4.176,2.34-7.451,2.34c-3.708,0-6.479-1.115-8.027-3.203c-0.648-0.864-0.972-1.584-1.404-3.204L125.774,317.453z"/>
	<path fill="#00A0E6" d="M160.478,318.749c0,2.556,0.072,3.815,0.288,5.183h-5.363c0.216-1.224,0.288-2.735,0.288-5.111v-18.97
		c0-1.979-0.072-3.023-0.288-4.679c1.476,0.071,2.375,0.107,4.571,0.107h10.079c2.268,0,3.419-0.071,4.931-0.252v4.859
		c-1.296-0.18-2.627-0.252-4.931-0.252h-9.575v7.631h7.703c2.232,0,3.492-0.071,4.896-0.252v4.788
		c-1.332-0.181-2.7-0.252-4.896-0.252h-7.703V318.749z"/>
	<path fill="#00A0E6" d="M192.084,307.806c-1.512-0.432-2.268-0.575-3.204-0.575c-1.8,0-3.168,0.575-4.176,1.764
		c-0.9,1.044-1.26,1.871-1.476,3.6v6.659c0,1.943,0.072,2.987,0.252,4.679h-5.147c0.18-1.764,0.252-2.808,0.252-4.679V307.95
		c0-2.196-0.036-3.204-0.252-4.68h4.896v3.384c1.296-2.556,3.527-3.779,6.767-3.779c0.864,0,1.728,0.107,3.348,0.396
		L192.084,307.806z"/>
	<path fill="#00A0E6" d="M209.652,321.592c-1.44,1.368-2.34,1.872-3.815,2.269c-1.044,0.287-2.196,0.432-3.348,0.432
		c-4.392,0-7.055-2.268-7.055-6.047c0-2.521,1.583-4.788,4.067-5.832c2.34-0.972,5.003-1.331,10.151-1.439v-1.836
		c0-2.088-1.404-3.168-4.14-3.168c-1.44,0-2.916,0.396-3.744,1.044c-0.684,0.504-1.008,1.008-1.439,2.304l-4.607-0.827
		c0.828-2.088,1.476-3.024,2.843-3.996c1.764-1.296,3.78-1.836,6.875-1.836c3.456,0,5.543,0.612,7.091,2.124
		c1.224,1.152,1.692,2.52,1.692,4.968v9.683c0,1.907,0.072,2.88,0.288,4.499h-4.859V321.592z M209.652,314.105
		c-6.875,0.144-9.575,1.332-9.575,4.14c0,1.691,1.26,2.735,3.276,2.735c1.908,0,3.779-0.72,5.003-1.908
		c0.864-0.863,1.296-1.907,1.296-3.167V314.105z"/>
	<path fill="#00A0E6" d="M218.797,323.932c0.18-1.548,0.252-2.735,0.252-4.679V307.95c0-2.268-0.072-3.312-0.252-4.68h4.823v1.836
		c0,0.216,0,0.756-0.036,1.332c1.044-2.196,3.708-3.6,6.695-3.6c1.944,0,3.527,0.54,4.644,1.619c0.648,0.576,0.936,1.044,1.368,2.16
		c1.224-1.62,1.908-2.268,3.023-2.844c1.188-0.647,2.412-0.936,4.032-0.936c2.304,0,4.175,0.72,5.399,2.052
		c1.188,1.296,1.691,2.915,1.691,5.471v8.892c0,2.016,0.072,3.203,0.288,4.679h-5.255c0.216-1.476,0.288-2.556,0.288-4.679v-8.063
		c0-3.168-1.116-4.607-3.528-4.607c-1.188,0-2.087,0.324-2.951,1.08c-1.26,1.08-1.836,2.231-2.268,4.463v7.128
		c0,1.979,0.072,3.203,0.252,4.679h-5.183c0.216-1.512,0.288-2.627,0.288-4.679v-8.063c0-3.023-1.152-4.535-3.492-4.535
		c-1.512,0-2.736,0.611-3.708,1.871c-0.792,1.044-1.152,1.872-1.548,3.6v7.128c0,1.943,0.072,3.023,0.252,4.679H218.797z"/>
	<path fill="#00A0E6" d="M258.865,314.789c0.18,1.979,0.504,2.987,1.332,4.031c1.044,1.296,2.664,2.016,4.5,2.016
		c1.764,0,3.275-0.647,4.319-1.8c0.432-0.504,0.684-0.899,1.044-1.871l4.248,1.367c-0.828,1.729-1.296,2.412-2.196,3.312
		c-1.872,1.836-4.392,2.772-7.415,2.772c-6.371,0-10.403-4.248-10.403-10.979c0-6.659,3.996-11.015,10.151-11.015
		c4.211,0,7.523,2.087,8.963,5.687c0.684,1.729,0.936,3.024,1.044,5.472c0,0.072,0,0.18,0.072,1.008H258.865z M269.843,311.226
		c-0.252-1.584-0.684-2.556-1.584-3.456c-0.972-0.972-2.196-1.439-3.887-1.439c-2.808,0-4.859,1.872-5.399,4.896H269.843z"/>
	<path fill="#00A0E6" d="M295.546,323.932c-0.144-0.863-0.468-2.016-0.9-3.419l-2.771-8.495c-0.072-0.145-0.288-0.936-0.684-2.412
		c-0.18,0.648-0.612,2.124-0.72,2.484l-2.772,8.423c-0.396,1.224-0.792,2.663-0.936,3.419h-4.176
		c-0.216-1.044-0.36-1.584-0.936-3.419l-3.959-12.778c-0.504-1.656-1.008-3.132-1.512-4.464h5.328
		c0.072,1.044,0.396,2.88,0.792,4.283l1.979,7.02c0.144,0.468,0.36,1.476,0.648,2.88c0.072-0.36,0.684-2.484,0.828-2.916
		l2.591-7.847c0.36-1.044,0.792-2.7,0.9-3.42h3.852c0.108,0.684,0.576,2.376,0.9,3.42l2.664,8.171
		c0.108,0.323,0.288,1.008,0.504,1.764c0.108,0.468,0.145,0.504,0.216,0.828c0.072-0.288,0.072-0.288,0.181-0.792
		c0.107-0.504,0.359-1.656,0.432-1.908l2.016-7.199c0.432-1.548,0.72-3.131,0.792-4.283h5.291c-0.468,1.188-0.54,1.476-1.476,4.464
		l-3.995,12.778c-0.54,1.728-0.72,2.411-0.9,3.419H295.546z"/>
	<path fill="#00A0E6" d="M307.825,313.638c0-6.695,4.175-10.979,10.727-10.979c6.515,0,10.654,4.248,10.654,10.907
		s-4.211,11.051-10.618,11.051C312,324.616,307.825,320.368,307.825,313.638z M312.469,313.638c0,4.427,2.304,7.163,6.047,7.163
		s6.047-2.7,6.047-7.092c0-4.644-2.195-7.307-6.011-7.307C314.772,306.402,312.469,309.138,312.469,313.638z"/>
	<path fill="#00A0E6" d="M346.63,307.806c-1.512-0.432-2.268-0.575-3.203-0.575c-1.8,0-3.168,0.575-4.176,1.764
		c-0.899,1.044-1.26,1.871-1.476,3.6v6.659c0,1.943,0.072,2.987,0.252,4.679h-5.147c0.18-1.764,0.252-2.808,0.252-4.679V307.95
		c0-2.196-0.036-3.204-0.252-4.68h4.896v3.384c1.296-2.556,3.527-3.779,6.767-3.779c0.864,0,1.729,0.107,3.348,0.396L346.63,307.806
		z"/>
	<path fill="#00A0E6" d="M355.667,295.279c-0.18,1.368-0.252,2.628-0.252,4.716v11.843l5.399-5.363
		c1.656-1.584,2.268-2.304,2.844-3.204h6.731c-2.052,1.836-2.052,1.836-3.6,3.312l-5.111,4.859l6.083,8.315
		c2.447,3.348,2.447,3.348,3.275,4.175h-6.407c-0.432-1.151-0.863-1.871-2.376-4.067l-3.887-5.688l-2.952,2.808v2.34
		c0,2.34,0.036,3.204,0.252,4.607h-5.075c0.18-1.476,0.252-2.699,0.252-4.679v-19.258c0-2.16-0.072-3.348-0.252-4.716H355.667z"/>
	<path fill="#00A0E6" d="M384.936,311.405c1.548-1.08,3.096-2.844,7.848-8.818c0.936-1.152,1.548-1.8,2.231-2.268
		c0.972-0.721,1.979-1.08,2.88-1.08c1.079,0,2.159,0.468,3.239,1.367c0.504,0.433,1.296,1.261,2.412,2.592
		c3.275,3.852,6.767,7.415,10.762,11.015c1.836,1.62,2.736,2.34,3.924,3.023l-2.195,5.111c-0.36-0.432-0.504-0.575-1.044-1.043
		c-1.872-1.656-4.716-4.355-7.344-6.983c-2.735-2.808-2.808-2.916-6.658-7.308c-2.232-2.556-2.448-2.735-3.132-2.735
		c-0.576,0-0.937,0.324-2.16,1.944c-2.951,3.959-4.932,6.371-7.091,8.71c-0.396,0.433-0.468,0.54-0.756,0.973L384.936,311.405z"/>
	<path fill="#00A0E6" d="M437.098,293.912c-0.181,1.188-0.252,2.951-0.252,5.579c0,0.504,0,0.611,0.035,2.34
		c4.32-0.036,8.279-0.469,10.547-1.225l0.36,4.355c-0.72,0.036-0.72,0.036-2.34,0.217c-3.023,0.396-5.615,0.575-8.459,0.647
		c0.072,2.808,0.144,4.428,0.396,7.955c2.017,0.612,3.708,1.368,5.615,2.447c1.296,0.721,1.908,1.152,4.644,3.06
		c0.468,0.324,0.648,0.469,1.08,0.721l-2.808,4.067c-0.647-0.792-1.224-1.332-2.556-2.376c-1.728-1.332-2.844-2.052-4.751-2.951
		c-0.469-0.252-0.756-0.396-1.152-0.648c0.036,0.288,0.072,0.612,0.072,1.152c0,4.031-2.844,6.155-8.207,6.155
		c-3.672,0-6.228-1.044-7.56-3.096c-0.539-0.9-0.899-2.088-0.899-3.204c0-3.743,3.707-6.443,8.891-6.443
		c1.332,0,2.628,0.145,3.348,0.36c-0.036-0.108-0.036-0.108-0.036-0.36c-0.144-1.296-0.468-11.122-0.504-15.622
		c-0.036-1.8-0.036-2.159-0.18-3.167L437.098,293.912z M429.826,316.517c-2.7,0-4.499,1.08-4.499,2.664
		c0,0.864,0.396,1.439,1.224,1.872c0.684,0.323,1.655,0.539,2.627,0.539c1.368,0,2.556-0.359,3.276-0.972
		c0.504-0.432,0.756-1.115,0.756-2.016c0-0.647-0.036-1.655-0.036-1.691C431.842,316.589,431.194,316.517,429.826,316.517z"/>
	<path fill="#00A0E6" d="M453.66,305.574c0.936-0.036,0.936-0.036,4.176-0.612c5.111-0.899,8.243-1.224,11.303-1.224
		c2.915,0,5.147,0.468,6.803,1.476c2.231,1.332,3.491,3.744,3.491,6.588c0,4.104-2.483,7.847-6.839,10.33
		c-2.951,1.692-5.471,2.448-11.339,3.384c-0.359-1.907-0.756-2.808-1.871-4.499c4.175-0.181,8.062-1.188,10.834-2.736
		c2.844-1.583,4.392-3.852,4.392-6.335c0-2.699-1.907-4.067-5.651-4.067c-4.067,0-11.267,1.26-14.254,2.483L453.66,305.574z
		 M459.275,294.092c3.996,1.332,9.323,2.088,15.011,2.088c0.18,0,0.575,0,1.008,0l-0.612,4.427
		c-6.551-0.287-11.519-0.936-16.81-2.268L459.275,294.092z"/>
	<path fill="#00A0E6" d="M493.871,311.153c-2.268,1.872-3.275,3.384-3.275,4.932c0,2.34,2.628,3.348,8.711,3.348
		c4.283,0,8.999-0.648,11.303-1.512l0.396,4.932c-0.611,0.035-0.827,0.035-1.583,0.144c-4.319,0.612-6.623,0.792-9.719,0.792
		c-3.924,0-7.092-0.396-8.999-1.188c-3.096-1.188-4.607-3.204-4.607-6.012c0-2.735,1.403-5.111,4.644-7.811L493.871,311.153z
		 M488.4,296.359c2.771,0.648,5.975,0.9,10.799,0.9c4.571,0,7.127-0.181,9.502-0.685l0.145,4.031
		c-2.16,0.973-6.047,3.384-9.611,5.976l-3.131-2.483c1.871-1.188,3.635-2.268,5.291-3.204c-1.584,0.216-3.132,0.288-5.399,0.288
		c-1.836,0-4.823-0.18-6.587-0.432c-0.72-0.072-0.828-0.108-1.332-0.108L488.4,296.359z"/>
	<path fill="#00A0E6" d="M519.9,295.676c1.152,0.144,1.872,0.18,3.527,0.18c3.24,0,7.883-0.18,10.691-0.396
		c1.728-0.145,2.627-0.288,3.383-0.576l2.34,2.987c-0.756,0.54-0.936,0.684-2.088,1.764c-2.592,2.376-6.659,5.615-9.898,7.848
		c1.8-0.252,4.392-0.504,8.747-0.864c2.268-0.18,3.923-0.288,4.751-0.36c1.296-0.144,2.232-0.216,2.556-0.252
		c0.576-0.036,0.685-0.036,1.188-0.144l0.252,4.211c-0.576,0-0.576,0-1.08,0c-4.104,0-7.343,0.576-10.007,1.765
		c-2.916,1.331-4.896,3.527-4.896,5.471c0,2.34,2.592,3.636,7.235,3.636c1.367,0,2.376-0.072,3.419-0.324l0.181,4.571
		c-0.396-0.035-0.828-0.035-1.332-0.035c-0.252,0-0.828,0-1.836,0.035c-0.18,0-0.359,0-0.468,0c-2.195,0-4.823-0.396-6.695-1.008
		c-3.096-0.972-5.075-3.455-5.075-6.299c0-1.691,0.684-3.312,1.943-4.68c1.008-1.08,1.908-1.728,3.852-2.735
		c-1.548,0.288-2.699,0.468-4.427,0.684c-1.62,0.216-2.952,0.36-3.96,0.504c-1.439,0.181-3.384,0.433-5.795,0.792
		c-0.72,0.108-0.972,0.18-1.656,0.36l-0.432-4.392c0.252,0.036,0.468,0.036,0.576,0.036c0.72,0,2.231-0.108,3.096-0.216
		c0.18-0.036,0.647-0.072,1.367-0.181c0.864-0.071,1.224-0.144,2.052-0.288c3.168-1.907,8.352-6.083,11.051-8.854
		c-2.771,0.396-4.067,0.504-10.043,0.792c-0.936,0.036-1.548,0.108-2.304,0.216L519.9,295.676z"/>
	<path fill="#00A0E6" d="M556.548,316.265c0.036-0.756,0.072-1.115,0.072-1.548c0-0.396,0-0.396-0.108-2.556l-0.504-12.238
		c-0.072-1.584-0.18-3.384-0.324-4.392h5.903c-0.107,0.972-0.252,2.844-0.324,4.392l-0.504,12.238
		c-0.071,2.088-0.071,2.088-0.071,2.592c0,0.432,0,0.792,0.071,1.512H556.548z M556.044,324.147v-4.931h5.219v4.931H556.044z"/>
</g>
</svg>
