<svg version="1.1" id="welcome" xmlns="http://www.w3.org/2000/svg" xmlns:xlink="http://www.w3.org/1999/xlink" x="0px" y="0px"
	 width="1224px" height="340px" viewBox="-256.75 0 1224 340" enable-background="new -256.75 0 1224 340" xml:space="preserve">
<polygon fill="#00A0E6" points="557.3,43.659 530.519,53.914 523.782,81.79 505.754,59.489 477.161,61.698 492.8,37.659 
	481.862,11.148 509.558,18.593 531.392,0 532.868,28.639 "/>
<polygon fill="#00A0E6" points="540.447,120.777 535.158,102.652 517.23,96.735 532.833,86.104 532.921,67.223 547.854,78.777 
	565.837,73.026 559.462,90.798 570.488,106.125 551.617,105.554 "/>
<polygon fill="#00A0E6" points="664.001,170 659.903,215.714 695.238,245.006 650.495,255.234 633.556,297.893 610.001,258.5 
	564.196,255.57 594.383,220.997 583.015,176.529 625.224,194.555 "/>
<polygon fill="#00A0E6" points="79,126 46.928,125.537 28.364,151.694 18.895,121.048 -11.719,111.477 14.5,93 14.144,60.927 
	39.818,80.153 70.211,69.903 59.859,100.262 "/>
<polygon fill="#00A0E6" points="626.758,24 624.312,12.618 613.55,8.18 623.62,2.336 624.514,-9.271 633.183,-1.5 644.499,-4.236 
	639.786,6.41 645.886,16.327 634.305,15.135 "/>
</svg>